# xmcd CD database file
#
# Track frame offsets:
#	170
#	18322
#	40062
#	65105
#	83875
#	101317
#	125170
#	148562
#
# Disc length: 2338 seconds
#
# Revision: 0
# Processed by: cddbd v1.5.1PL0 Copyright (c) Steve Scherf et al.
# Submitted via: CDex 1.51
#
DISCID=69092008
DTITLE=blues boy willie - i got the blues
DYEAR=1992
DGENRE=Blues
TTITLE0=hard headed woman
TTITLE1=restless soul
TTITLE2=i got the blues
TTITLE3=stream line woman
TTITLE4=keep lovin' me baby
TTITLE5=be who
TTITLE6=i ain't doing too bad
TTITLE7=i need your love
EXTD=YEAR: 1992
EXTT0=
EXTT1=
EXTT2=
EXTT3=
EXTT4=
EXTT5=
EXTT6=
EXTT7=
PLAYORDER=
